<svg width="34" height="18" viewBox="0 0 34 18" fill="none" xmlns="http://www.w3.org/2000/svg">
<path d="M27.8942 6.754L27.8452 6.50757C27.6177 5.36256 26.882 4.38662 25.8502 3.85862L25.8502 3.85861C24.8188 3.3307 23.6043 3.30856 22.5544 3.79839L22.3063 3.91416L22.2135 3.65655C21.2466 0.971838 18.3055 -0.411761 15.6456 0.561606C12.9849 1.53532 11.6085 4.50094 12.5758 7.18636L12.6923 7.50999L12.3485 7.52095C10.0416 7.59446 8.21592 9.51991 8.25048 11.851L27.8942 6.754ZM27.8942 6.754L28.1404 6.70379M27.8942 6.754L28.1404 6.70379M28.1404 6.70379C28.4453 6.64161 28.7559 6.61039 29.0672 6.61039M28.1404 6.70379L29.0672 6.61039M29.0672 6.61039C31.6514 6.61039 33.75 8.72275 33.75 11.3327C33.75 13.9427 31.6514 16.0551 29.0672 16.0551H12.4756M29.0672 6.61039L12.4756 16.0551M12.4756 16.0551C10.1674 16.0513 8.28527 14.1823 8.25048 11.851L12.4756 16.0551Z" fill="white" stroke="#56CCF2" stroke-width="0.5"/>
<path d="M19.8942 7.754L19.8452 7.50757C19.6177 6.36256 18.882 5.38662 17.8502 4.85862L17.8502 4.85861C16.8188 4.3307 15.6043 4.30856 14.5544 4.79839L14.3063 4.91416L14.2135 4.65655C13.2466 1.97184 10.3055 0.588239 7.64563 1.56161C4.98486 2.53532 3.60853 5.50094 4.57576 8.18636L4.69232 8.50999L4.34851 8.52095C2.04157 8.59446 0.215923 10.5199 0.250483 12.851L19.8942 7.754ZM19.8942 7.754L20.1404 7.70379M19.8942 7.754L20.1404 7.70379M20.1404 7.70379C20.4453 7.64161 20.7559 7.61039 21.0672 7.61039M20.1404 7.70379L21.0672 7.61039M21.0672 7.61039C23.6514 7.61039 25.75 9.72275 25.75 12.3327C25.75 14.9427 23.6514 17.0551 21.0672 17.0551H4.47561M21.0672 7.61039L4.47561 17.0551M4.47561 17.0551C2.16745 17.0513 0.285272 15.1823 0.250483 12.851L4.47561 17.0551Z" fill="white" stroke="#56CCF2" stroke-width="0.5"/>
</svg>
