<svg width="35" height="25" viewBox="0 0 35 25" fill="none" xmlns="http://www.w3.org/2000/svg">
<path d="M22 19.7568C26.2192 19.7568 29.6396 16.3364 29.6396 12.1172C29.6396 7.89797 26.2192 4.47762 22 4.47762C17.7808 4.47762 14.3604 7.89797 14.3604 12.1172C14.3604 16.3364 17.7808 19.7568 22 19.7568Z" fill="white"/>
<ellipse cx="17.8789" cy="9.99264" rx="2.28101" ry="2.91181" transform="rotate(23.3496 17.8789 9.99264)" fill="#B7FBFF" fill-opacity="0.2"/>
<path d="M22 2.92039C22.555 2.92104 23.1087 2.97193 23.6545 3.07241C23.6619 2.96633 23.6668 2.85829 23.6668 2.74968C23.6666 1.23118 22 0 22 0C22 0 20.3332 1.23118 20.3332 2.74968C20.3332 2.85907 20.3382 2.96633 20.3456 3.07241C20.8914 2.97193 21.4451 2.92105 22 2.92039Z" fill="white"/>
<path d="M22 21.314C22.555 21.3133 23.1087 21.2625 23.6546 21.1622C23.662 21.268 23.6668 21.3753 23.6668 21.4847C23.6668 23.003 22.0002 24.2344 22.0002 24.2344C22.0002 24.2344 20.3334 23.0034 20.3334 21.4847C20.3334 21.3753 20.3384 21.268 20.3458 21.1622C20.8915 21.2625 21.4452 21.3133 22 21.314Z" fill="white"/>
<path d="M28.5032 5.614C28.895 6.00693 29.2505 6.43444 29.5654 6.89132C29.6458 6.82164 29.725 6.74922 29.8023 6.67195C30.8762 5.59804 30.5681 3.54912 30.5681 3.54912C30.5681 3.54912 28.5191 3.24157 27.4452 4.31489C27.3674 4.39275 27.2955 4.47061 27.2259 4.55178C27.6827 4.86668 28.1102 5.2222 28.5032 5.614Z" fill="white"/>
<path d="M15.4968 18.6204C15.8897 19.0123 16.3172 19.3678 16.7741 19.6826C16.7044 19.763 16.632 19.8422 16.5548 19.9195C15.4809 20.9934 13.4319 20.6852 13.4319 20.6852C13.4319 20.6852 13.1238 18.6363 14.1977 17.5624C14.2756 17.4846 14.3534 17.4127 14.4346 17.343C14.7494 17.8 15.105 18.2275 15.4968 18.6204Z" fill="white"/>
<path d="M31.1968 12.1178C31.1961 12.6727 31.1453 13.2265 31.045 13.7723C31.1509 13.7797 31.2581 13.7848 31.3675 13.7848C32.8858 13.7848 34.1172 12.118 34.1172 12.118C34.1172 12.118 32.886 10.4513 31.3675 10.4513C31.2581 10.4513 31.1509 10.4562 31.045 10.4636C31.1453 11.0093 31.1961 11.5629 31.1968 12.1178Z" fill="white"/>
<path d="M12.8032 12.1178C12.8039 12.6727 12.8547 13.2265 12.955 13.7723C12.8491 13.7797 12.7409 13.7848 12.6325 13.7848C11.114 13.784 9.88281 12.1178 9.88281 12.1178C9.88281 12.1178 11.114 10.4511 12.6325 10.4511C12.7419 10.4511 12.8491 10.456 12.955 10.4634C12.8547 11.0092 12.8039 11.5629 12.8032 12.1178Z" fill="white"/>
<path d="M28.5032 18.6204C28.1102 19.0122 27.6827 19.3677 27.2259 19.6826C27.2955 19.763 27.368 19.8422 27.4452 19.9195C28.5191 20.9934 30.5681 20.6852 30.5681 20.6852C30.5681 20.6852 30.8762 18.6363 29.8023 17.5624C29.7244 17.4846 29.6466 17.4127 29.5654 17.343C29.2505 17.8 28.895 18.2275 28.5032 18.6204Z" fill="white"/>
<path d="M15.4968 5.614C15.105 6.00693 14.7495 6.43444 14.4346 6.89132C14.3542 6.82164 14.275 6.74922 14.1977 6.67195C13.1238 5.59804 13.4319 3.54912 13.4319 3.54912C13.4319 3.54912 15.4809 3.24157 16.5548 4.31489C16.6326 4.39275 16.7044 4.47061 16.7741 4.55178C16.3172 4.86663 15.8897 5.22216 15.4968 5.614Z" fill="white"/>
<path d="M20.777 14.754L20.7281 14.5076C20.5005 13.3626 19.7648 12.3866 18.733 11.8586L18.733 11.8586C17.7016 11.3307 16.4871 11.3086 15.4372 11.7984L15.1891 11.9142L15.0963 11.6565C14.1294 8.97184 11.1883 7.58824 8.52845 8.56161C5.86767 9.53532 4.49134 12.5009 5.45857 15.1864L5.57513 15.51L5.23132 15.521C2.92438 15.5945 1.09874 17.5199 1.1333 19.851L20.777 14.754ZM20.777 14.754L21.0232 14.7038M20.777 14.754L21.0232 14.7038M21.0232 14.7038C21.3281 14.6416 21.6387 14.6104 21.95 14.6104M21.0232 14.7038L21.95 14.6104M21.95 14.6104C24.5342 14.6104 26.6328 16.7228 26.6328 19.3327C26.6328 21.9427 24.5342 24.0551 21.95 24.0551H5.35843M21.95 14.6104L5.35843 24.0551M5.35843 24.0551C3.05026 24.0513 1.16808 22.1823 1.1333 19.851L5.35843 24.0551Z" fill="white" stroke="#56CCF2" stroke-width="0.5"/>
</svg>
