<svg width="27" height="26" viewBox="0 0 27 26" fill="none" xmlns="http://www.w3.org/2000/svg">
<path d="M5.5 18V21.9661" stroke="white" stroke-width="2" stroke-linecap="round"/>
<path d="M11.2288 20.2034V24.1695" stroke="white" stroke-width="2" stroke-linecap="round"/>
<path d="M16.517 18V21.0847" stroke="white" stroke-width="2" stroke-linecap="round"/>
<path d="M22.6864 18L22.6864 21.9661" stroke="white" stroke-width="2" stroke-linecap="round"/>
<path d="M20.3942 6.754L20.3452 6.50757C20.1177 5.36256 19.382 4.38662 18.3502 3.85862L18.3502 3.85861C17.3188 3.3307 16.1043 3.30856 15.0544 3.79839L14.8063 3.91416L14.7135 3.65655C13.7466 0.971838 10.8055 -0.411761 8.14563 0.561606C5.48486 1.53532 4.10853 4.50094 5.07576 7.18636L5.19232 7.50999L4.84851 7.52095C2.54157 7.59446 0.715923 9.51991 0.750483 11.851L20.3942 6.754ZM20.3942 6.754L20.6404 6.70379M20.3942 6.754L20.6404 6.70379M20.6404 6.70379C20.9453 6.64161 21.2559 6.61039 21.5672 6.61039M20.6404 6.70379L21.5672 6.61039M21.5672 6.61039C24.1514 6.61039 26.25 8.72275 26.25 11.3327C26.25 13.9427 24.1514 16.0551 21.5672 16.0551H4.97561M21.5672 6.61039L4.97561 16.0551M4.97561 16.0551C2.66745 16.0513 0.785272 14.1823 0.750483 11.851L4.97561 16.0551Z" fill="white" stroke="#56CCF2" stroke-width="0.5"/>
</svg>
