<svg width="26" height="25" viewBox="0 0 26 25" fill="none" xmlns="http://www.w3.org/2000/svg">
<path d="M13 19.7568C17.2192 19.7568 20.6396 16.3364 20.6396 12.1172C20.6396 7.89797 17.2192 4.47762 13 4.47762C8.78077 4.47762 5.36041 7.89797 5.36041 12.1172C5.36041 16.3364 8.78077 19.7568 13 19.7568Z" fill="white"/>
<ellipse cx="8.87885" cy="9.99264" rx="2.28101" ry="2.91181" transform="rotate(23.3496 8.87885 9.99264)" fill="#B7FBFF" fill-opacity="0.2"/>
<path d="M13 2.92039C13.555 2.92104 14.1088 2.97193 14.6546 3.07241C14.662 2.96633 14.6668 2.85829 14.6668 2.74968C14.6666 1.23118 13 0 13 0C13 0 11.3332 1.23118 11.3332 2.74968C11.3332 2.85907 11.3383 2.96633 11.3456 3.07241C11.8914 2.97193 12.4451 2.92105 13 2.92039Z" fill="white"/>
<path d="M13 21.314C13.555 21.3133 14.1087 21.2625 14.6546 21.1622C14.662 21.268 14.6668 21.3753 14.6668 21.4847C14.6668 23.003 13.0002 24.2344 13.0002 24.2344C13.0002 24.2344 11.3334 23.0034 11.3334 21.4847C11.3334 21.3753 11.3384 21.268 11.3458 21.1622C11.8915 21.2625 12.4452 21.3133 13 21.314Z" fill="white"/>
<path d="M19.5032 5.614C19.895 6.00693 20.2505 6.43444 20.5654 6.89132C20.6458 6.82164 20.725 6.74922 20.8023 6.67195C21.8762 5.59804 21.5681 3.54912 21.5681 3.54912C21.5681 3.54912 19.5191 3.24157 18.4452 4.31489C18.3674 4.39275 18.2955 4.47061 18.2259 4.55178C18.6827 4.86668 19.1102 5.2222 19.5032 5.614Z" fill="white"/>
<path d="M6.49681 18.6204C6.88966 19.0123 7.31717 19.3678 7.77413 19.6826C7.70444 19.763 7.63203 19.8422 7.55476 19.9195C6.48085 20.9934 4.43193 20.6852 4.43193 20.6852C4.43193 20.6852 4.12379 18.6363 5.19769 17.5624C5.27556 17.4846 5.35342 17.4127 5.43459 17.343C5.74944 17.8 6.10496 18.2275 6.49681 18.6204Z" fill="white"/>
<path d="M22.1968 12.1178C22.1961 12.6727 22.1453 13.2265 22.045 13.7723C22.1509 13.7797 22.2581 13.7848 22.3675 13.7848C23.8858 13.7848 25.1172 12.118 25.1172 12.118C25.1172 12.118 23.886 10.4513 22.3675 10.4513C22.2581 10.4513 22.1509 10.4562 22.045 10.4636C22.1453 11.0093 22.1961 11.5629 22.1968 12.1178Z" fill="white"/>
<path d="M3.8032 12.1178C3.80388 12.6727 3.8547 13.2265 3.95503 13.7723C3.84914 13.7797 3.74091 13.7848 3.63249 13.7848C2.114 13.784 0.882812 12.1178 0.882812 12.1178C0.882812 12.1178 2.114 10.4511 3.63249 10.4511C3.74188 10.4511 3.84914 10.456 3.95503 10.4634C3.85472 11.0092 3.8039 11.5629 3.8032 12.1178Z" fill="white"/>
<path d="M19.5032 18.6204C19.1102 19.0122 18.6827 19.3677 18.2259 19.6826C18.2955 19.763 18.368 19.8422 18.4452 19.9195C19.5191 20.9934 21.5681 20.6852 21.5681 20.6852C21.5681 20.6852 21.8762 18.6363 20.8023 17.5624C20.7244 17.4846 20.6466 17.4127 20.5654 17.343C20.2505 17.8 19.895 18.2275 19.5032 18.6204Z" fill="white"/>
<path d="M6.49681 5.614C6.10501 6.00693 5.74949 6.43444 5.43459 6.89132C5.3542 6.82164 5.27497 6.74922 5.19769 6.67195C4.12379 5.59804 4.43193 3.54912 4.43193 3.54912C4.43193 3.54912 6.48085 3.24157 7.55476 4.31489C7.63262 4.39275 7.70444 4.47061 7.77413 4.55178C7.31721 4.86663 6.8897 5.22216 6.49681 5.614Z" fill="white"/>
</svg>
